<?xml version="1.0" encoding="UTF-8"?><svg id="a" xmlns="http://www.w3.org/2000/svg" viewBox="0 0 3096 432"><defs><style>.b{fill:#404040;}</style></defs><g><polygon class="b" points="432 0 0 432 144 432 576 0 432 0"/><polygon class="b" points="360 0 216 0 72 144 216 144 360 0"/><polygon class="b" points="648 0 216 432 360 432 792 0 648 0"/><polygon class="b" points="864 144 720 144 576 288 432 432 576 432 648 360 720 432 864 432 720 288 864 144"/></g><g><path class="b" d="M936,86.08h30.03l64.49,307.89h.98l64.49-307.89h29.54V428.87h-17.23l.98-327.16h-1.48l-69.41,327.16h-16.24l-69.9-327.16h-.98l.98,327.16h-16.24V86.08Z"/><path class="b" d="M1180.16,100.67h18.71v42.2h-18.71v-42.2Zm.98,70.85h16.74V428.87h-16.74V171.52Z"/><path class="b" d="M1261.87,354.9V188.19h-30.52v-16.67h23.63c5.91,0,8.37-3.13,8.86-15.11l.49-43.24h14.28v58.35h68.92v16.67h-68.92v166.19c0,38.03,10.83,59.39,41.84,59.39,11.81,0,20.67-1.56,24.12-3.13v16.15c-3.94,1.56-13.78,3.13-26.58,3.13-41.84,0-56.12-27.61-56.12-75.02Z"/><path class="b" d="M1379.03,342.92h15.75c0,50.53,12.31,72.93,45.78,72.93,28.55,0,45.78-16.15,45.78-52.1,0-16.15-3.45-28.65-10.83-36.99-6.4-7.29-17.23-12.5-37.41-19.8-23.63-8.34-37.41-15.11-45.78-25.53-7.88-9.9-13.29-24.49-13.29-44.8,0-41.16,22.64-68.25,59.56-68.25,41.84,0,59.07,25.01,59.07,90.65h-16.24c0-56.78-12.31-74.5-42.83-74.5-27.07,0-42.83,19.28-42.83,52.1,0,16.67,3.94,27.61,10.34,34.9,6.4,7.81,19.69,14.59,40.86,21.88,22.15,7.29,33.97,13.54,42.33,23.44,10.34,12.5,13.78,28.13,13.78,45.84,0,45.32-23.63,69.29-62.52,69.29-45.78,0-61.53-31.78-61.53-89.08Z"/><path class="b" d="M1547.38,351.77V171.52h16.74v178.69c0,38.55,13.29,65.12,46.76,65.12,37.41,0,60.06-43.76,60.06-100.54V171.52h16.74V428.87h-16.74c.49-13.54,1.48-39.59,1.97-65.12h-.49c-6.89,41.68-29.04,68.25-64.49,68.25-42.83,0-60.55-32.82-60.55-80.23Z"/><path class="b" d="M1741.32,71.5h16.74V328.33h.49l102.39-156.81h20.67l-75.32,112.53,79.25,144.83h-19.69l-70.39-129.72-37.41,56.26v73.46h-16.74V71.5Z"/><path class="b" d="M1922.96,100.67h18.71v42.2h-18.71v-42.2Zm.98,70.85h16.74V428.87h-16.74V171.52Z"/><path class="b" d="M2065.72,86.08h18.71l51.2,316.74h1.97l49.23-314.66h22.15l50.21,314.66h1.48l51.2-316.74h17.72l-58.58,342.79h-23.63l-48.73-311.53h-1.48l-49.72,311.53h-23.14l-58.58-342.79Z"/><path class="b" d="M2364.52,300.2c0-89.08,22.64-131.8,70.39-131.8s70.39,42.72,70.39,131.8-22.64,131.8-70.39,131.8-70.39-42.72-70.39-131.8Zm124.05,0c0-78.66-17.23-115.13-53.66-115.13s-53.66,36.47-53.66,115.13,17.23,115.13,53.66,115.13,53.66-36.47,53.66-115.13Z"/><path class="b" d="M2552.56,171.52h16.74l-1.97,65.64h.49c6.4-41.16,23.14-68.77,55.63-68.77,34.95,0,49.23,30.22,49.23,77.1,0,21.88-.98,43.76-1.97,54.18h-15.75c.98-10.94,1.97-28.65,1.97-52.1,0-41.16-11.32-62.51-36.43-62.51-31.5,0-51.2,40.11-51.2,103.67v140.14h-16.74V171.52Z"/><path class="b" d="M2718.44,71.5h16.74V328.33h.49l102.39-156.81h20.67l-75.32,112.53,79.25,144.83h-19.69l-70.39-129.72-37.41,56.26v73.46h-16.74V71.5Z"/><path class="b" d="M2893.69,342.92h15.75c0,50.53,12.31,72.93,45.78,72.93,28.55,0,45.78-16.15,45.78-52.1,0-16.15-3.45-28.65-10.83-36.99-6.4-7.29-17.23-12.5-37.41-19.8-23.63-8.34-37.41-15.11-45.78-25.53-7.88-9.9-13.29-24.49-13.29-44.8,0-41.16,22.64-68.25,59.56-68.25,41.84,0,59.07,25.01,59.07,90.65h-16.24c0-56.78-12.31-74.5-42.83-74.5-27.07,0-42.83,19.28-42.83,52.1,0,16.67,3.94,27.61,10.34,34.9,6.4,7.81,19.69,14.59,40.86,21.88,22.15,7.29,33.97,13.54,42.33,23.44,10.34,12.5,13.78,28.13,13.78,45.84,0,45.32-23.63,69.29-62.52,69.29-45.78,0-61.53-31.78-61.53-89.08Z"/><path class="b" d="M3078.28,385.11h17.72v43.76h-17.72v-43.76Z"/></g></svg>